<svg width="26" height="26" viewBox="0 0 26 26" fill="none" xmlns="http://www.w3.org/2000/svg">
<path d="M7.05421 21.9802C8.13237 21.9802 9.01568 22.8823 9.01568 23.9967C9.01568 25.0979 8.13237 26 7.05421 26C5.96306 26 5.07975 25.0979 5.07975 23.9967C5.07975 22.8823 5.96306 21.9802 7.05421 21.9802ZM21.6678 21.9802C22.746 21.9802 23.6293 22.8823 23.6293 23.9967C23.6293 25.0979 22.746 26 21.6678 26C20.5767 26 19.6934 25.0979 19.6934 23.9967C19.6934 22.8823 20.5767 21.9802 21.6678 21.9802ZM1.14407 0.0113598L4.24216 0.487631C4.68381 0.568558 5.00856 0.938696 5.04753 1.38976L5.29434 4.36148C5.33331 4.78734 5.67104 5.10574 6.08672 5.10574H23.6295C24.4219 5.10574 24.9415 5.38434 25.4611 5.9946C25.9807 6.60487 26.0716 7.48046 25.9547 8.27514L24.7207 16.978C24.4869 18.651 23.084 19.8834 21.4343 19.8834H7.2623C5.53465 19.8834 4.10576 18.5316 3.96288 16.7804L2.76781 2.31842L0.806336 1.97349C0.286741 1.88063 -0.0769752 1.36323 0.0139539 0.832563C0.104883 0.289959 0.611488 -0.0695666 1.14407 0.0113598ZM19.3559 10.0131H15.7577C15.2121 10.0131 14.7834 10.4509 14.7834 11.0081C14.7834 11.552 15.2121 12.0031 15.7577 12.0031H19.3559C19.9015 12.0031 20.3301 11.552 20.3301 11.0081C20.3301 10.4509 19.9015 10.0131 19.3559 10.0131Z"/>
</svg>
