<svg width="26" height="26" viewBox="0 0 26 26" fill="none" xmlns="http://www.w3.org/2000/svg">
<path d="M9.27511 24.4053V20.4303C9.27511 19.4156 10.1037 18.593 11.1259 18.593H14.8623C15.3531 18.593 15.8239 18.7866 16.171 19.1311C16.5181 19.4757 16.713 19.943 16.713 20.4303V24.4053C16.7099 24.8272 16.8766 25.2328 17.176 25.5322C17.4754 25.8316 17.8828 26 18.3077 26H20.8569C22.0474 26.003 23.1903 25.5357 24.0332 24.701C24.8762 23.8664 25.3499 22.7331 25.3499 21.5512V10.2269C25.3499 9.27219 24.9236 8.36659 24.1859 7.75406L15.5141 0.878629C14.0057 -0.32687 11.8443 -0.287947 10.3809 0.971072L1.90702 7.75406C1.13446 8.34853 0.67272 9.25682 0.649902 10.2269V21.5396C0.649902 24.003 2.6615 26 5.14293 26H7.63388C8.51649 26 9.23379 25.2931 9.24019 24.4169L9.27511 24.4053Z" />
</svg>
